<svg width="56" height="49" viewBox="0 0 56 49" fill="none" xmlns="http://www.w3.org/2000/svg">
<path d="M2.94009 35.2737L28.0769 20.7444L53.2136 35.2737L31.9251 47.5787C29.7998 48.8071 26.354 48.8071 24.2287 47.5787L2.94009 35.2737Z" fill="#1750FF"/>
<path d="M53.2893 35.2465L31.9538 47.5787C30.9022 48.1865 29.5274 48.4935 28.1493 48.4999L28.15 39.0249L53.2901 24.4924L53.2893 35.2465Z" fill="#3E95FF"/>
<path d="M29.6553 41.2459C29.1282 40.0399 28.576 39.5471 28.1493 39.0284V48.4822C28.1995 48.4822 28.6663 48.2587 29.5423 46.8871C30.7848 44.9419 30.0464 42.1407 29.6553 41.2459Z" fill="#1750FF"/>
<path d="M55.0463 27.0169C54.4289 25.6481 53.7821 25.0888 53.2823 24.5V35.2301C53.3411 35.2301 53.8879 34.9764 54.914 33.4196C56.3693 31.2118 55.5044 28.0325 55.0463 27.0169Z" fill="#3E95FF"/>
<path d="M3.02722 24.5044L28.164 9.97515L53.3008 24.5044L28.164 39.0337L3.02722 24.5044Z" fill="#039C55"/>
<path d="M13.7665 19.1418C13.7665 22.7794 10.6847 25.7282 6.88324 25.7282C3.08174 25.7282 2.33391e-05 22.7794 2.33391e-05 19.1418C2.33391e-05 15.5043 3.08174 12.5555 6.88324 12.5555C10.6847 12.5555 13.7665 15.5043 13.7665 19.1418Z" fill="#039C55"/>
<path d="M2.94009 13.7263L24.2287 1.42133C26.354 0.19289 29.7998 0.192889 31.9251 1.42133L53.2136 13.7263L28.0769 28.2556L2.94009 13.7263Z" fill="#62E360"/>
<path d="M28.1663 39.0091L12.3482 29.9546L10.93 29.1909L5.36633 32.9L29.5845 46.7546C29.9118 46.2818 30.5227 44.9655 30.3482 43.4818C30.1736 41.9982 29.1482 39.9909 28.1663 39.0091Z" fill="white"/>
<path d="M3.51166 18.6091C3.51166 16.8636 5.00257 15.5909 6.23893 15.6636L28.2753 28.2091L48.1298 16.6455L52.4935 20.6818L28.2753 34.8636L5.3662 21.6636C4.05711 20.9 3.51165 20.3545 3.51166 18.6091Z" fill="white"/>
</svg>
